<mxfile host="app.diagrams.net" modified="2023-10-22T16:19:49.756Z" agent="Mozilla/5.0 (Windows NT 10.0; Win64; x64; rv:109.0) Gecko/20100101 Firefox/118.0" etag="0yMiklm7LancKknK9xCS" version="22.0.6" type="github">
  <diagram name="Page-1" id="sWqkfUj6m_CCeIlrbYhG">
    <mxGraphModel dx="1290" dy="606" grid="1" gridSize="10" guides="1" tooltips="1" connect="1" arrows="1" fold="1" page="1" pageScale="1" pageWidth="1169" pageHeight="827" math="0" shadow="0">
      <root>
        <mxCell id="0" />
        <mxCell id="1" parent="0" />
        <mxCell id="vdYmqRAd1pRQnadH-3AE-1" value="" style="rounded=0;whiteSpace=wrap;html=1;" parent="1" vertex="1">
          <mxGeometry x="270" y="298.5" width="460" height="160" as="geometry" />
        </mxCell>
        <mxCell id="vdYmqRAd1pRQnadH-3AE-3" value="" style="rounded=0;whiteSpace=wrap;html=1;" parent="1" vertex="1">
          <mxGeometry x="540" y="348.5" width="530" height="60" as="geometry" />
        </mxCell>
        <mxCell id="hN_NPj9hov84vUHAl6w_-6" value="" style="ellipse;whiteSpace=wrap;html=1;aspect=fixed;" parent="1" vertex="1">
          <mxGeometry x="995" y="313.5" width="130" height="130" as="geometry" />
        </mxCell>
        <mxCell id="vdYmqRAd1pRQnadH-3AE-2" value="" style="rounded=0;whiteSpace=wrap;html=1;" parent="1" vertex="1">
          <mxGeometry x="480" y="298.5" width="60" height="160" as="geometry" />
        </mxCell>
        <mxCell id="hN_NPj9hov84vUHAl6w_-1" value="" style="endArrow=classic;html=1;rounded=0;" parent="1" edge="1">
          <mxGeometry width="50" height="50" relative="1" as="geometry">
            <mxPoint x="985" y="297.5" as="sourcePoint" />
            <mxPoint x="1135" y="297.5" as="targetPoint" />
          </mxGeometry>
        </mxCell>
        <mxCell id="hN_NPj9hov84vUHAl6w_-3" value="" style="endArrow=none;html=1;rounded=0;exitX=-0.017;exitY=0.894;exitDx=0;exitDy=0;exitPerimeter=0;" parent="1" source="vdYmqRAd1pRQnadH-3AE-2" edge="1">
          <mxGeometry width="50" height="50" relative="1" as="geometry">
            <mxPoint x="730" y="458.5" as="sourcePoint" />
            <mxPoint x="360" y="538.5" as="targetPoint" />
          </mxGeometry>
        </mxCell>
        <mxCell id="hN_NPj9hov84vUHAl6w_-4" value="" style="endArrow=none;html=1;rounded=0;exitX=1.017;exitY=0.844;exitDx=0;exitDy=0;exitPerimeter=0;" parent="1" source="vdYmqRAd1pRQnadH-3AE-2" edge="1">
          <mxGeometry width="50" height="50" relative="1" as="geometry">
            <mxPoint x="730" y="458.5" as="sourcePoint" />
            <mxPoint x="610" y="528.5" as="targetPoint" />
          </mxGeometry>
        </mxCell>
        <mxCell id="hN_NPj9hov84vUHAl6w_-5" value="" style="ellipse;whiteSpace=wrap;html=1;aspect=fixed;" parent="1" vertex="1">
          <mxGeometry x="1020" y="338.5" width="80" height="80" as="geometry" />
        </mxCell>
        <mxCell id="hN_NPj9hov84vUHAl6w_-7" value="&lt;font style=&quot;font-size: 48px;&quot;&gt;S1&lt;/font&gt;" style="text;html=1;strokeColor=none;fillColor=none;align=center;verticalAlign=middle;whiteSpace=wrap;rounded=0;" parent="1" vertex="1">
          <mxGeometry x="300" y="538.5" width="60" height="30" as="geometry" />
        </mxCell>
        <mxCell id="hN_NPj9hov84vUHAl6w_-8" value="&lt;font style=&quot;font-size: 48px;&quot;&gt;S2&lt;/font&gt;" style="text;html=1;strokeColor=none;fillColor=none;align=center;verticalAlign=middle;whiteSpace=wrap;rounded=0;" parent="1" vertex="1">
          <mxGeometry x="610" y="538.5" width="60" height="30" as="geometry" />
        </mxCell>
        <mxCell id="hN_NPj9hov84vUHAl6w_-9" value="&lt;font style=&quot;font-size: 48px;&quot;&gt;p1&lt;/font&gt;" style="text;html=1;strokeColor=none;fillColor=none;align=center;verticalAlign=middle;whiteSpace=wrap;rounded=0;" parent="1" vertex="1">
          <mxGeometry x="290" y="408.5" width="60" height="30" as="geometry" />
        </mxCell>
        <mxCell id="hN_NPj9hov84vUHAl6w_-11" value="&lt;font style=&quot;font-size: 48px;&quot;&gt;p1&lt;/font&gt;" style="text;html=1;strokeColor=none;fillColor=none;align=center;verticalAlign=middle;whiteSpace=wrap;rounded=0;" parent="1" vertex="1">
          <mxGeometry x="590" y="413.5" width="60" height="30" as="geometry" />
        </mxCell>
        <mxCell id="hN_NPj9hov84vUHAl6w_-12" value="&lt;font style=&quot;font-size: 48px;&quot;&gt;a&lt;/font&gt;" style="text;html=1;strokeColor=none;fillColor=none;align=center;verticalAlign=middle;whiteSpace=wrap;rounded=0;" parent="1" vertex="1">
          <mxGeometry x="1035" y="238" width="60" height="30" as="geometry" />
        </mxCell>
        <mxCell id="hN_NPj9hov84vUHAl6w_-13" value="&lt;font style=&quot;font-size: 48px;&quot;&gt;m&lt;/font&gt;" style="text;html=1;strokeColor=none;fillColor=none;align=center;verticalAlign=middle;whiteSpace=wrap;rounded=0;" parent="1" vertex="1">
          <mxGeometry x="870" y="298.5" width="60" height="30" as="geometry" />
        </mxCell>
        <mxCell id="hN_NPj9hov84vUHAl6w_-15" value="" style="rounded=0;whiteSpace=wrap;html=1;" parent="1" vertex="1">
          <mxGeometry x="180" y="348.5" width="90" height="60" as="geometry" />
        </mxCell>
        <mxCell id="hN_NPj9hov84vUHAl6w_-16" value="" style="ellipse;whiteSpace=wrap;html=1;aspect=fixed;" parent="1" vertex="1">
          <mxGeometry x="110" y="313.5" width="130" height="130" as="geometry" />
        </mxCell>
        <mxCell id="hN_NPj9hov84vUHAl6w_-17" value="" style="ellipse;whiteSpace=wrap;html=1;aspect=fixed;" parent="1" vertex="1">
          <mxGeometry x="135" y="338.5" width="80" height="80" as="geometry" />
        </mxCell>
        <mxCell id="0i8E-aVRz_baijCmf47E-1" value="" style="endArrow=classic;html=1;rounded=0;" parent="1" edge="1">
          <mxGeometry width="50" height="50" relative="1" as="geometry">
            <mxPoint x="330" y="378.1" as="sourcePoint" />
            <mxPoint x="480" y="378.1" as="targetPoint" />
          </mxGeometry>
        </mxCell>
        <mxCell id="0i8E-aVRz_baijCmf47E-2" value="&lt;font style=&quot;font-size: 48px;&quot;&gt;F1&lt;/font&gt;" style="text;html=1;strokeColor=none;fillColor=none;align=center;verticalAlign=middle;whiteSpace=wrap;rounded=0;" parent="1" vertex="1">
          <mxGeometry x="380" y="328.5" width="60" height="30" as="geometry" />
        </mxCell>
        <mxCell id="0i8E-aVRz_baijCmf47E-3" value="" style="endArrow=classic;html=1;rounded=0;" parent="1" edge="1">
          <mxGeometry width="50" height="50" relative="1" as="geometry">
            <mxPoint x="690" y="378.1" as="sourcePoint" />
            <mxPoint x="540" y="378.1" as="targetPoint" />
          </mxGeometry>
        </mxCell>
        <mxCell id="0i8E-aVRz_baijCmf47E-4" value="&lt;font style=&quot;font-size: 48px;&quot;&gt;F2&lt;/font&gt;" style="text;html=1;strokeColor=none;fillColor=none;align=center;verticalAlign=middle;whiteSpace=wrap;rounded=0;" parent="1" vertex="1">
          <mxGeometry x="720" y="363.5" width="60" height="30" as="geometry" />
        </mxCell>
      </root>
    </mxGraphModel>
  </diagram>
</mxfile>
